<svg viewBox="0 0 1200 1200" fill="none" xmlns="http://www.w3.org/2000/svg">
<path d="M756.526 845.693C752.552 843.541 747.113 838.591 744.604 834.502L739.793 827.185V504.382V181.578L757.153 182.654C794.592 185.021 823.665 206.541 835.378 240.543L839.143 251.088H853.784C881.183 251.088 903.772 260.772 920.923 279.28C941.629 302.091 948.95 321.674 948.95 354.17C948.95 365.576 948.113 378.273 947.068 382.577C945.603 389.248 946.022 390.755 949.787 393.122C976.768 409.908 996.638 437.023 1004.38 467.797C1008.35 483.722 1008.35 523.319 1004.38 541.181C1000.61 557.321 992.873 573.892 983.043 586.374C975.931 595.197 975.931 595.627 978.023 606.388C981.369 622.528 980.951 669.657 977.186 684.721C968.611 719.584 946.858 748.206 919.041 761.979C910.674 766.068 899.171 770.157 893.314 770.802C882.856 772.309 882.856 772.309 879.092 783.499C870.516 808.463 851.692 829.983 828.057 841.389C815.089 847.63 812.161 848.275 788.945 848.921C768.029 849.566 762.591 848.921 756.526 845.693Z" fill="white"/>
<path d="M632.495 842.895C597.357 835.148 561.173 812.767 536.91 783.714C525.825 770.372 513.066 743.041 509.72 724.964C506.373 707.317 508.047 684.936 513.276 677.404C521.224 666.214 527.707 664.923 577.905 663.416L623.92 662.125L631.031 667.505C635.005 670.518 640.025 672.885 642.535 672.885C652.365 672.885 663.45 658.682 660.313 650.074C658.431 645.124 646.509 634.149 642.953 634.149C641.698 634.149 636.887 636.731 632.286 640.174L624.129 645.985L571.003 647.061L518.086 648.137L486.713 678.911L455.339 709.9V723.673C455.339 739.598 451.156 749.712 440.28 760.473C430.659 769.941 424.384 771.878 403.677 771.878C382.971 771.878 375.232 768.865 364.565 756.814C355.99 747.13 352.852 736.8 352.852 719.369C352.852 701.292 356.617 690.316 366.447 680.202C377.533 669.011 389.246 665.353 411.207 667.075L427.521 668.151L447.81 647.276L467.889 626.617V609.831V593.26H406.396H345.113L334.865 603.805C323.57 615.426 314.576 619.084 296.589 619.084C279.438 619.084 269.399 614.996 258.522 603.805C250.365 595.627 248.274 591.754 246.182 581.424C243.254 566.575 244.927 548.068 250.574 537.092C255.385 527.193 267.934 516.433 277.556 513.635C287.177 510.838 305.792 510.838 315.831 513.85C330.472 517.939 346.577 537.523 346.577 551.296V556.676H477.091C592.964 556.676 607.815 557.106 610.325 560.119C614.089 564.853 623.083 569.157 626.848 567.866C631.449 566.36 639.607 558.397 641.489 553.448C644.626 545.27 633.541 530.851 624.129 530.851C622.037 530.851 617.227 533.003 613.671 535.801L606.978 540.535L518.086 540.105L429.195 539.675L428.149 517.078L427.103 494.267L417.273 484.152L407.442 474.038L397.403 479.203C385.481 485.444 364.565 487.38 350.761 483.507C338.63 480.064 322.943 464.354 319.596 452.302C316.459 440.251 316.668 423.896 320.433 410.984C332.146 370.095 397.193 366.221 416.436 405.388C418.109 409.047 425.639 417.655 432.75 424.757C439.862 431.643 450.529 441.973 456.385 447.783L466.843 458.113L532.309 457.037L597.775 455.961L603.631 461.126C606.978 463.923 611.579 466.291 613.88 466.291C618.691 466.291 628.103 459.189 631.24 452.948C635.423 445.201 628.103 433.795 616.181 429.276C614.089 428.415 609.488 430.137 605.096 433.149L597.775 438.314L546.95 437.884L496.125 437.238L495.497 411.199L494.87 385.159L476.464 366.652L458.058 347.929H441.953C407.442 347.929 390.71 330.713 390.5 295.635C390.5 276.912 393.847 266.367 402.632 256.899C412.671 245.923 421.874 242.48 441.535 242.48C462.032 242.48 468.307 244.417 477.928 253.886C489.223 265.076 492.987 274.545 492.987 292.622V308.547L511.812 327.7C538.165 354.385 537.956 354.17 585.853 354.385C624.756 354.385 625.175 354.385 631.449 359.765C639.397 366.652 641.907 366.652 650.901 358.474C661.777 348.575 659.686 337.169 645.254 329.422C639.397 326.194 638.561 326.409 631.24 331.574C622.456 337.815 617.227 338.245 572.467 335.663L546.741 334.371L547.996 312.636C550.087 276.482 558.454 252.81 577.696 228.061C602.377 196.427 639.607 177.919 678.928 177.919C697.752 177.919 707.164 181.793 714.066 192.768L718.877 200.085V510.838C718.877 855.162 719.923 830.844 705.491 841.389C699.844 845.478 696.079 846.123 674.954 846.554C657.803 846.984 645.672 845.908 632.495 842.895ZM410.37 724.534C413.926 720.445 413.926 720.014 410.37 715.926C405.769 710.546 402.632 710.546 398.239 715.495C395.102 718.938 395.102 719.799 398.03 724.103C402.004 729.914 405.56 730.129 410.37 724.534ZM302.236 571.309C308.093 565.284 302.445 555.169 294.497 557.752C292.197 558.397 289.687 560.98 289.059 563.347C286.549 571.525 296.38 577.335 302.236 571.309ZM374.605 437.023C376.487 435.301 377.951 432.934 377.951 431.858C377.951 429.061 371.676 423.25 368.748 423.25C365.192 423.25 361.218 427.769 361.218 431.858C361.218 435.947 365.192 440.466 368.748 440.466C370.212 440.466 372.931 438.96 374.605 437.023ZM448.437 298.433C450.529 295.205 450.319 293.483 447.182 289.609C442.999 284.229 437.979 285.09 434.423 291.761C432.75 295.42 432.959 296.926 436.515 300.585C441.116 305.319 444.881 304.673 448.437 298.433Z" fill="white"/>
<path d="M233.423 1118.35C224.011 1115.56 217.318 1109.75 212.716 1100.06C208.742 1091.45 208.324 1086.07 207.278 1025.6L206.233 960.181L190.127 947.699C135.956 905.95 102.072 848.706 92.4511 783.284C87.8496 751.434 87.8496 315.434 92.4511 285.736C101.027 231.72 124.452 186.312 163.983 147.576C191.173 120.891 221.292 102.383 255.594 91.1926C291.778 79.5716 276.928 80.002 598.611 80.002C880.346 80.002 898.751 80.2172 915.066 83.8757C966.1 95.4966 1005.21 117.017 1040.14 152.956C1075.28 189.325 1096.2 228.492 1105.82 277.343C1109.79 297.141 1110 307.256 1110 530.421C1110 684.291 1109.16 768.65 1107.7 779.626C1097.03 858.39 1047.46 930.483 979.068 966.421C958.361 977.182 939.955 984.068 916.111 989.663C895.823 994.398 894.15 994.398 657.175 995.474C435.259 996.765 418.318 996.98 411.416 1000.64C407.442 1002.58 392.382 1013.12 377.95 1024.1C330.89 1059.6 249.737 1116.63 244.299 1118.35C241.371 1119.22 236.351 1119.22 233.423 1118.35ZM821.782 834.933C845.416 823.527 864.24 802.007 872.816 777.043C876.581 765.853 876.581 765.853 887.039 764.346C892.895 763.701 904.399 759.612 912.765 755.523C940.583 741.75 962.335 713.128 970.911 678.265C975.094 660.834 974.885 624.249 970.283 605.957L966.518 591.754L974.675 582.285C1003.33 549.144 1009.81 491.9 989.526 450.796C980.741 433.149 968.61 418.085 955.015 407.971C947.903 402.806 941.001 397.641 939.537 396.35C937.027 394.628 937.027 392.046 939.537 381.286C948.112 344.916 939.746 313.282 914.647 285.736C897.496 267.228 874.908 257.544 847.508 257.544H832.867L829.102 246.999C818.435 215.795 789.781 192.768 757.152 189.325L746.067 188.034V504.382V820.729L750.877 828.046C758.616 840.098 767.192 843.326 788.944 842.465C804.84 841.819 810.069 840.528 821.782 834.933ZM699.216 834.933C713.647 824.388 712.602 847.845 712.602 510.838V206.541L707.791 199.224C698.17 184.16 682.065 181.147 653.619 188.464C597.565 203.313 559.917 250.227 554.479 312.206L553.015 327.915L584.807 329.637L616.599 331.143L624.547 325.548C629.148 322.105 635.214 319.953 639.606 319.953C662.195 319.953 674.326 348.144 658.639 363.639C647.972 374.184 632.285 374.83 623.71 365.145C620.154 361.057 617.226 360.841 579.996 360.841C546.74 360.841 538.792 360.196 532.308 356.968C528.125 355.031 515.785 344.486 504.909 333.511L485.248 313.927L486.085 299.078C487.34 282.077 483.784 272.178 471.653 260.342C462.868 251.518 455.757 248.936 441.534 248.936C400.33 248.936 381.088 302.091 412.043 330.067C422.501 339.321 432.331 342.334 448.436 340.612L461.613 339.106L481.483 358.905L501.144 378.488L501.771 404.743L502.399 430.782L546.949 431.428L591.291 431.858L599.239 426.478C608.232 420.237 615.971 419.592 626.011 424.541C639.815 431.428 643.998 451.657 634.168 463.923C624.337 475.975 608.232 477.696 597.984 467.797C593.173 463.063 592.336 463.063 526.87 463.708L460.567 464.569L450.11 454.024C444.253 448.429 433.586 438.099 426.475 431.213C419.364 424.111 411.834 415.503 410.161 411.844C400.33 391.831 379.624 381.716 359.126 386.666C343.858 390.539 330.89 403.021 326.498 418.3C320.851 438.099 325.034 452.948 340.093 466.936C357.035 482.646 378.578 483.076 397.402 468.012L405.141 461.771L413.089 468.012C432.331 483.937 433.168 485.874 434.423 510.407L435.469 532.788L518.086 533.434L600.703 534.079L607.396 529.13C616.389 522.459 624.756 521.167 633.749 525.256C650.273 532.143 654.665 554.309 642.325 567.651C632.495 578.196 618.063 578.626 606.35 568.512L600.075 563.132H470.189H340.302V557.752C340.302 549.789 333.191 536.877 324.825 529.13C292.405 499.862 243.672 532.358 252.875 576.905C254.548 585.082 257.267 589.817 264.796 597.349C284.457 617.793 308.719 617.578 328.589 597.349L338.838 586.804H406.396H474.163V610.046V633.073L451.574 656.315L428.985 679.341L418.945 675.898C394.056 667.075 367.702 681.493 361.009 707.318C354.107 734.648 371.885 762.84 397.611 764.992C414.553 766.498 423.128 763.916 432.54 755.308C444.672 743.902 449.064 734.003 449.064 717.217V703.444L480.437 672.455L511.811 641.681L564.728 640.605L617.854 639.529L626.011 633.718C638.142 625.11 649.645 625.325 659.476 634.794C673.698 648.137 670.143 670.948 652.574 678.48C643.371 682.569 634.168 681.063 624.965 674.176C618.272 669.011 617.854 669.011 579.159 670.087C557.616 670.733 537.119 672.024 533.354 673.316C511.393 680.202 508.464 710.115 526.243 749.282C550.296 802.437 614.716 841.819 674.953 840.098C689.594 839.667 693.987 838.806 699.216 834.933Z" fill="#2368FF"/>
<path d="M393.846 732.496C386.317 724.749 386.317 713.558 393.846 707.533C401.167 701.722 407.651 701.937 414.762 707.963C425.429 717.432 420.409 733.572 405.768 736.585C400.33 737.661 398.03 736.8 393.846 732.496Z" fill="#2368FF"/>
<path d="M284.875 577.12C277.346 569.588 278.81 557.967 287.804 550.865C297.216 543.333 313.112 552.372 313.112 565.284C313.112 569.373 311.229 573.892 307.883 577.12C304.745 580.563 300.353 582.5 296.379 582.5C292.405 582.5 288.013 580.563 284.875 577.12Z" fill="#2368FF"/>
<path d="M358.08 443.694C354.734 440.466 352.852 435.947 352.852 431.858C352.852 424.111 360.8 414.642 367.283 414.642C377.532 414.642 386.317 423.465 386.317 433.795C386.317 435.947 383.807 440.251 380.879 443.479C373.767 450.796 364.774 450.796 358.08 443.694Z" fill="#2368FF"/>
<path d="M430.24 307.041C425.011 301.661 424.802 289.825 430.031 283.153C435.469 276.267 448.018 276.267 453.456 283.153C458.685 289.825 458.476 300.8 453.247 306.61C447.6 312.851 435.887 312.851 430.24 307.041Z" fill="#2368FF"/>
</svg>
